<mxfile host="app.diagrams.net" modified="2024-02-02T22:31:04.041Z" agent="Mozilla/5.0 (Windows NT 10.0; Win64; x64) AppleWebKit/537.36 (KHTML, like Gecko) Chrome/120.0.0.0 Safari/537.36 OPR/106.0.0.0" version="23.1.1" etag="An24yl0SOA_LC7mjmn3Q" type="github">
  <diagram name="Page-1" id="wS4uqITVkCHbQX4BRi-i">
    <mxGraphModel>
      <root>
        <mxCell id="0" />
        <mxCell id="1" parent="0" />
      </root>
    </mxGraphModel>
  </diagram>
</mxfile>
